<mxfile host="app.diagrams.net" modified="2024-02-19T11:48:57.202Z" agent="Mozilla/5.0 (Macintosh; Intel Mac OS X 10_15_7) AppleWebKit/605.1.15 (KHTML, like Gecko) Version/17.3 Safari/605.1.15" etag="9wbMsIcGHRQeNneSWTcM" version="23.1.5" type="device">
  <diagram name="Page-1" id="_MnGSh32mzbZPi_uW8kq">
    <mxGraphModel dx="1725" dy="474" grid="1" gridSize="10" guides="1" tooltips="1" connect="1" arrows="1" fold="1" page="1" pageScale="1" pageWidth="827" pageHeight="1169" math="0" shadow="0">
      <root>
        <mxCell id="0" />
        <mxCell id="1" parent="0" />
        <mxCell id="b4bqZYuxYeVIcgovf8sj-44" value="" style="rounded=0;whiteSpace=wrap;html=1;" vertex="1" parent="1">
          <mxGeometry x="-60" y="170" width="970" height="370" as="geometry" />
        </mxCell>
        <mxCell id="b4bqZYuxYeVIcgovf8sj-14" value="" style="edgeStyle=orthogonalEdgeStyle;rounded=0;orthogonalLoop=1;jettySize=auto;html=1;" edge="1" parent="1" source="b4bqZYuxYeVIcgovf8sj-1" target="b4bqZYuxYeVIcgovf8sj-2">
          <mxGeometry relative="1" as="geometry">
            <Array as="points">
              <mxPoint x="320" y="290" />
              <mxPoint x="320" y="290" />
            </Array>
          </mxGeometry>
        </mxCell>
        <mxCell id="b4bqZYuxYeVIcgovf8sj-22" value="Send&amp;nbsp;&lt;br&gt;Instructions" style="edgeLabel;html=1;align=center;verticalAlign=middle;resizable=0;points=[];" vertex="1" connectable="0" parent="b4bqZYuxYeVIcgovf8sj-14">
          <mxGeometry x="-0.28" relative="1" as="geometry">
            <mxPoint as="offset" />
          </mxGeometry>
        </mxCell>
        <mxCell id="b4bqZYuxYeVIcgovf8sj-1" value="Raspberry Pi 4 (Compute)" style="rounded=0;whiteSpace=wrap;html=1;" vertex="1" parent="1">
          <mxGeometry x="260" y="210" width="200" height="60" as="geometry" />
        </mxCell>
        <mxCell id="b4bqZYuxYeVIcgovf8sj-20" value="Data + Power" style="edgeStyle=orthogonalEdgeStyle;rounded=0;orthogonalLoop=1;jettySize=auto;html=1;" edge="1" parent="1" source="b4bqZYuxYeVIcgovf8sj-2" target="b4bqZYuxYeVIcgovf8sj-1">
          <mxGeometry relative="1" as="geometry">
            <Array as="points">
              <mxPoint x="400" y="290" />
              <mxPoint x="400" y="290" />
            </Array>
          </mxGeometry>
        </mxCell>
        <mxCell id="b4bqZYuxYeVIcgovf8sj-25" value="Configure" style="edgeStyle=orthogonalEdgeStyle;rounded=0;orthogonalLoop=1;jettySize=auto;html=1;" edge="1" parent="1" source="b4bqZYuxYeVIcgovf8sj-2" target="b4bqZYuxYeVIcgovf8sj-7">
          <mxGeometry relative="1" as="geometry">
            <Array as="points">
              <mxPoint x="400" y="410" />
              <mxPoint x="400" y="410" />
            </Array>
          </mxGeometry>
        </mxCell>
        <mxCell id="b4bqZYuxYeVIcgovf8sj-27" style="edgeStyle=orthogonalEdgeStyle;rounded=0;orthogonalLoop=1;jettySize=auto;html=1;" edge="1" parent="1" source="b4bqZYuxYeVIcgovf8sj-2" target="b4bqZYuxYeVIcgovf8sj-16">
          <mxGeometry relative="1" as="geometry">
            <Array as="points">
              <mxPoint x="450" y="300" />
              <mxPoint x="700" y="300" />
            </Array>
          </mxGeometry>
        </mxCell>
        <mxCell id="b4bqZYuxYeVIcgovf8sj-33" value="Configure" style="edgeLabel;html=1;align=center;verticalAlign=middle;resizable=0;points=[];" vertex="1" connectable="0" parent="b4bqZYuxYeVIcgovf8sj-27">
          <mxGeometry x="0.1176" y="3" relative="1" as="geometry">
            <mxPoint as="offset" />
          </mxGeometry>
        </mxCell>
        <mxCell id="b4bqZYuxYeVIcgovf8sj-34" value="Apply power&lt;br&gt;and direction" style="edgeStyle=orthogonalEdgeStyle;rounded=0;orthogonalLoop=1;jettySize=auto;html=1;" edge="1" parent="1" source="b4bqZYuxYeVIcgovf8sj-2" target="b4bqZYuxYeVIcgovf8sj-13">
          <mxGeometry relative="1" as="geometry">
            <Array as="points">
              <mxPoint x="210" y="330" />
              <mxPoint x="210" y="330" />
            </Array>
          </mxGeometry>
        </mxCell>
        <mxCell id="b4bqZYuxYeVIcgovf8sj-40" style="edgeStyle=orthogonalEdgeStyle;rounded=0;orthogonalLoop=1;jettySize=auto;html=1;" edge="1" parent="1" source="b4bqZYuxYeVIcgovf8sj-2" target="b4bqZYuxYeVIcgovf8sj-39">
          <mxGeometry relative="1" as="geometry">
            <Array as="points">
              <mxPoint x="440" y="400" />
              <mxPoint x="670" y="400" />
            </Array>
          </mxGeometry>
        </mxCell>
        <mxCell id="b4bqZYuxYeVIcgovf8sj-41" value="Config Rotation&lt;br&gt;+ Speed" style="edgeLabel;html=1;align=center;verticalAlign=middle;resizable=0;points=[];" vertex="1" connectable="0" parent="b4bqZYuxYeVIcgovf8sj-40">
          <mxGeometry x="-0.4357" y="-3" relative="1" as="geometry">
            <mxPoint as="offset" />
          </mxGeometry>
        </mxCell>
        <mxCell id="b4bqZYuxYeVIcgovf8sj-2" value="PiCar Control Board&lt;br&gt;(Connection)" style="rounded=0;whiteSpace=wrap;html=1;" vertex="1" parent="1">
          <mxGeometry x="260" y="320" width="200" height="60" as="geometry" />
        </mxCell>
        <mxCell id="b4bqZYuxYeVIcgovf8sj-6" value="Power Supply" style="edgeStyle=orthogonalEdgeStyle;rounded=0;orthogonalLoop=1;jettySize=auto;html=1;" edge="1" parent="1" source="b4bqZYuxYeVIcgovf8sj-5" target="b4bqZYuxYeVIcgovf8sj-2">
          <mxGeometry relative="1" as="geometry" />
        </mxCell>
        <mxCell id="b4bqZYuxYeVIcgovf8sj-5" value="Batteries&amp;nbsp;&lt;br&gt;2x 18650" style="rounded=0;whiteSpace=wrap;html=1;" vertex="1" parent="1">
          <mxGeometry x="580" y="320" width="180" height="60" as="geometry" />
        </mxCell>
        <mxCell id="b4bqZYuxYeVIcgovf8sj-8" style="edgeStyle=orthogonalEdgeStyle;rounded=0;orthogonalLoop=1;jettySize=auto;html=1;" edge="1" parent="1" source="b4bqZYuxYeVIcgovf8sj-7" target="b4bqZYuxYeVIcgovf8sj-2">
          <mxGeometry relative="1" as="geometry">
            <Array as="points">
              <mxPoint x="320" y="400" />
              <mxPoint x="320" y="400" />
            </Array>
          </mxGeometry>
        </mxCell>
        <mxCell id="b4bqZYuxYeVIcgovf8sj-19" value="Send Data" style="edgeLabel;html=1;align=center;verticalAlign=middle;resizable=0;points=[];" vertex="1" connectable="0" parent="b4bqZYuxYeVIcgovf8sj-8">
          <mxGeometry x="0.12" y="1" relative="1" as="geometry">
            <mxPoint as="offset" />
          </mxGeometry>
        </mxCell>
        <mxCell id="b4bqZYuxYeVIcgovf8sj-7" value="Ultrasonic sensor" style="rounded=0;whiteSpace=wrap;html=1;" vertex="1" parent="1">
          <mxGeometry x="260" y="430" width="200" height="60" as="geometry" />
        </mxCell>
        <mxCell id="b4bqZYuxYeVIcgovf8sj-35" style="edgeStyle=orthogonalEdgeStyle;rounded=0;orthogonalLoop=1;jettySize=auto;html=1;" edge="1" parent="1" source="b4bqZYuxYeVIcgovf8sj-13" target="b4bqZYuxYeVIcgovf8sj-2">
          <mxGeometry relative="1" as="geometry">
            <Array as="points">
              <mxPoint x="210" y="370" />
              <mxPoint x="210" y="370" />
            </Array>
          </mxGeometry>
        </mxCell>
        <mxCell id="b4bqZYuxYeVIcgovf8sj-36" value="Get readings" style="edgeLabel;html=1;align=center;verticalAlign=middle;resizable=0;points=[];" vertex="1" connectable="0" parent="b4bqZYuxYeVIcgovf8sj-35">
          <mxGeometry x="0.08" y="6" relative="1" as="geometry">
            <mxPoint as="offset" />
          </mxGeometry>
        </mxCell>
        <mxCell id="b4bqZYuxYeVIcgovf8sj-13" value="Motors (4x)" style="rounded=0;whiteSpace=wrap;html=1;" vertex="1" parent="1">
          <mxGeometry x="-40" y="210" width="200" height="280" as="geometry" />
        </mxCell>
        <mxCell id="b4bqZYuxYeVIcgovf8sj-30" style="edgeStyle=orthogonalEdgeStyle;rounded=0;orthogonalLoop=1;jettySize=auto;html=1;" edge="1" parent="1" source="b4bqZYuxYeVIcgovf8sj-16" target="b4bqZYuxYeVIcgovf8sj-2">
          <mxGeometry relative="1" as="geometry">
            <Array as="points">
              <mxPoint x="660" y="280" />
              <mxPoint x="440" y="280" />
            </Array>
          </mxGeometry>
        </mxCell>
        <mxCell id="b4bqZYuxYeVIcgovf8sj-31" value="Send data" style="edgeLabel;html=1;align=center;verticalAlign=middle;resizable=0;points=[];" vertex="1" connectable="0" parent="b4bqZYuxYeVIcgovf8sj-30">
          <mxGeometry x="-0.0485" y="4" relative="1" as="geometry">
            <mxPoint as="offset" />
          </mxGeometry>
        </mxCell>
        <mxCell id="b4bqZYuxYeVIcgovf8sj-16" value="Grayscale Sensor" style="rounded=0;whiteSpace=wrap;html=1;" vertex="1" parent="1">
          <mxGeometry x="580" y="210" width="180" height="60" as="geometry" />
        </mxCell>
        <mxCell id="b4bqZYuxYeVIcgovf8sj-42" value="Directs" style="edgeStyle=orthogonalEdgeStyle;rounded=0;orthogonalLoop=1;jettySize=auto;html=1;" edge="1" parent="1" source="b4bqZYuxYeVIcgovf8sj-39" target="b4bqZYuxYeVIcgovf8sj-7">
          <mxGeometry relative="1" as="geometry" />
        </mxCell>
        <mxCell id="b4bqZYuxYeVIcgovf8sj-39" value="Servo" style="rounded=0;whiteSpace=wrap;html=1;" vertex="1" parent="1">
          <mxGeometry x="580" y="430" width="180" height="60" as="geometry" />
        </mxCell>
      </root>
    </mxGraphModel>
  </diagram>
</mxfile>
